# xmcd
#
# Track frame offsets: 
#        150
#        15152
#        34702
#        48541
#        69533
#        90434
#        112778
#        132106
#        154202
#        172442
#        195009
#        213042
#        246153
#        268211
#        282732
#        304677
#        324077
#
# Disc length: 4654 seconds
#
# Revision: 0
# Processed by: cddbd v1.5.2PL0 Copyright (c) Steve Scherf et al.
# Submitted via: ExactAudioCopy v0.99pb4
#
DISCID=e1122c11
DTITLE=Various Artist - 4 Blues Guitar Masters
DYEAR=2011
DGENRE=Blues
TTITLE0=LUCKY PETERSON - Money Changes Everything
TTITLE1=JOE LOUIS WALKER - Way Too Expensive
TTITLE2=BILL PERRY - Itchin' For It
TTITLE3=MAGIC SLIM - How Many More Years
TTITLE4=LUCKY PETERSON and TAMARA PETERSON - Been So Long
TTITLE5=BILL PERRY - Can't Afford To Die
TTITLE6=JOE LOUIS WALKER - Midnight Train 
TTITLE7=MAGIC SLIM - Chicken Heads
TTITLE8=LUCKY PETERSON - Ain't No In Between
TTITLE9=MAGIC SLIM - I'm A Bluesman
TTITLE10=BILL PERRY - Another Man
TTITLE11=JOE LOUIS WALKER - Blackjack
TTITLE12=LUCKY PETERSON - Troubles
TTITLE13=BILL PERRY - Til the money runs out
TTITLE14=JOE LOUIS WALKER - Rollin' and Tumblin'
TTITLE15=LUCKY PETERSON - Armed And Dangerous
TTITLE16=MAGIC SLIM - Sunny Road Blues
EXTD=
EXTT0=
EXTT1=
EXTT2=
EXTT3=
EXTT4=
EXTT5=
EXTT6=
EXTT7=
EXTT8=
EXTT9=
EXTT10=
EXTT11=
EXTT12=
EXTT13=
EXTT14=
EXTT15=
EXTT16=
PLAYORDER=
